<?xml version="1.0" encoding="UTF-8"?>
<svg width="31px" height="31px" viewBox="0 0 31 31" version="1.1" xmlns="http://www.w3.org/2000/svg" xmlns:xlink="http://www.w3.org/1999/xlink">
    <title>Color Details</title>
    <g id="Color-Details" stroke="none" stroke-width="1" fill="none" fill-rule="evenodd">
        <g id="Group-28" transform="translate(3.000000, 4.000000)" fill="#000000" fill-rule="nonzero" stroke="#000000" stroke-width="0.15">
            <path d="M12.1764706,15.0082079 C10.1861055,15.0082079 8.27743828,14.217336 6.87034899,12.8101504 C5.46294702,11.4027862 4.67236662,9.4941701 4.67236662,7.50417097 C4.67236662,5.51385916 5.46294702,3.60524309 6.87034899,2.19774483 C8.27757228,0.790559228 10.1862395,0 12.1764706,0 C14.166657,0 16.0753242,0.790559228 17.4825922,2.19774483 C18.8899942,3.60510909 19.6805746,5.51372516 19.6805746,7.50417097 C19.6805746,8.82130812 19.3338743,10.1154418 18.6751853,11.2561895 C18.0165098,12.3969371 17.0692337,13.3441877 15.9284556,14.0028456 C14.7876774,14.6613249 13.493509,15.0082079 12.1763366,15.0082079 L12.1764706,15.0082079 Z M12.1764706,0.833930775 L12.1764706,0.833756306 C10.4073912,0.833756306 8.71067402,1.5365451 7.45996769,2.7873966 C6.20890401,4.03842676 5.50609639,5.73505378 5.50609639,7.50421983 C5.50609639,9.27338588 6.20890401,10.9697449 7.45996769,12.2205964 C8.71085269,13.4714479 10.4075252,14.1742367 12.1764706,14.1742367 C13.94555,14.1742367 15.6422672,13.4714479 16.8929735,12.2205964 C18.1438585,10.9695662 18.8466661,9.27311788 18.8466661,7.50421983 C18.8452702,5.73603646 18.1417591,4.0407941 16.8910528,2.79096995 C15.6401678,1.54119046 13.944344,0.839250333 12.1763366,0.839250333 L12.1764706,0.833930775 Z" id="Shape"></path>
            <path d="M16.504104,23.0082079 C14.5137388,23.0082079 12.6050717,22.2176416 11.1979824,20.8104435 C9.7905804,19.4030667 9,17.4944335 9,15.50397 C9,13.5138191 9.7905804,11.6051859 11.1979824,10.1979431 C12.6052057,8.79074496 14.5138729,8 16.504104,8 C18.4942904,8 20.4029576,8.79074496 21.8102256,10.1979431 C23.2176275,11.60532 24.0082079,13.5139531 24.0082079,15.50397 C24.0082079,16.8212975 23.6615077,18.1152641 23.0028187,19.2560219 C22.3441432,20.3967798 21.3968671,21.3442175 20.2560889,22.0027027 C19.1153108,22.6613665 17.8211424,23.0082079 16.50397,23.0082079 L16.504104,23.0082079 Z M16.504104,8.83393822 C14.7350245,8.83393822 13.0383074,9.53673329 11.7876011,10.787596 C10.5365374,12.0384586 9.83372977,13.7351008 9.83372977,15.5040146 C9.83372977,17.2730625 10.5365374,18.9697493 11.7876011,20.22088 C13.0384861,21.4717426 14.7351585,22.1745377 16.504104,22.1745377 C18.2731834,22.1745377 19.9699005,21.4717426 21.2206069,20.22088 C22.4714919,18.9698387 23.1742995,17.2731965 23.1742995,15.5040146 C23.1729036,13.7359941 22.4693925,12.0407366 21.2186861,10.7911693 C19.9678011,9.54137869 18.2719774,8.8394323 16.50397,8.8394323 L16.504104,8.83393822 Z" id="Shape"></path>
            <path d="M7.50502531,22.7954855 C5.76876185,22.7958343 4.08605451,22.19386 2.7439355,21.0925402 C1.40163782,19.9910418 0.48283101,18.4583689 0.144163377,16.7554238 C-0.194504256,15.0524787 0.0677420561,13.2848105 0.886400261,11.7535669 C1.70488426,10.2223234 3.02922568,9.02237801 4.63340787,8.35812892 C6.23759006,7.69387982 8.0225409,7.6064657 9.68394193,8.11088585 C11.345343,8.61531494 12.7804593,9.68018606 13.7446481,11.1241942 C14.7090156,12.5680236 15.1426013,14.3016999 14.9717935,16.0295694 C14.8009767,17.7574836 14.0364151,19.3726572 12.8080637,20.5999391 C11.4012218,22.0055779 9.49397181,22.7952531 7.50515932,22.7954855 L7.50502531,22.7954855 Z M7.50502531,8.62117531 C5.12193437,8.62117531 2.91992475,9.89245454 1.7282006,11.9564017 C0.536655132,14.0201701 0.536655132,16.5629519 1.7282006,18.6265864 C2.91974608,20.6902208 5.1218897,21.9618127 7.50502531,21.9618127 C9.88816093,21.9618127 12.0901259,20.6903548 13.2814034,18.6265864 C14.4726808,16.5628179 14.4729488,14.0200361 13.2814034,11.9564017 C12.0898579,9.89245454 9.88789292,8.62117531 7.50502531,8.62117531 Z" id="Shape"></path>
        </g>
    </g>
</svg>