<svg xmlns="http://www.w3.org/2000/svg" width="15" height="16.484" viewBox="0 0 15 16.484">
  <g id="Group_195" data-name="Group 195" transform="translate(-217 469.78)">
    <g id="Group_117" data-name="Group 117" transform="translate(217 -465.265)">
      <path id="Path_82" data-name="Path 82" d="M0,0V1.967a.907.907,0,0,0,.907.907H6.949V-.907H.907A.907.907,0,0,0,0,0" fill="#c03c45"/>
    </g>
    <g id="Group_118" data-name="Group 118" transform="translate(231.093 -466.172)">
      <path id="Path_83" data-name="Path 83" d="M0,0H-6.042V3.781H0a.907.907,0,0,0,.907-.907V.907A.907.907,0,0,0,0,0" fill="#c03c45"/>
    </g>
    <g id="Group_119" data-name="Group 119" transform="translate(217.843 -453.884)">
      <path id="Path_84" data-name="Path 84" d="M0,0A.588.588,0,0,0,.588.588H6.105V-7.837H0Z" fill="#c03c45"/>
    </g>
    <g id="Group_120" data-name="Group 120" transform="translate(225.051 -453.297)">
      <path id="Path_85" data-name="Path 85" d="M0,0H5.518a.587.587,0,0,0,.587-.588V-8.425H0Z" fill="#c03c45"/>
    </g>
    <g id="Group_121" data-name="Group 121" transform="translate(220.634 -466.81)">
      <path id="Path_86" data-name="Path 86" d="M0,0A3.613,3.613,0,0,0,1.735.247C2.373.247,2.938.2,2.961.2a.38.38,0,0,0,.305-.2.381.381,0,0,0,.006-.362A7.918,7.918,0,0,0,1.543-2.769a1.588,1.588,0,0,0-.77-.2,1.588,1.588,0,0,0-1.386.814A1.587,1.587,0,0,0,0,0M.057-1.783A.819.819,0,0,1,.773-2.2a.816.816,0,0,1,.4.1A5.8,5.8,0,0,1,2.305-.531c-.172.007-.368.011-.57.011A3.331,3.331,0,0,1,.373-.67.819.819,0,0,1,.057-1.783" fill="#c03c45"/>
    </g>
    <g id="Group_122" data-name="Group 122" transform="translate(225.405 -466.609)">
      <path id="Path_87" data-name="Path 87" d="M0,0C.024,0,.588.045,1.227.045A3.614,3.614,0,0,0,2.961-.2a1.587,1.587,0,0,0,.613-2.157,1.587,1.587,0,0,0-1.385-.813,1.581,1.581,0,0,0-.771.2A7.927,7.927,0,0,0-.311-.558.387.387,0,0,0-.305-.2.383.383,0,0,0,0,0M1.791-2.3a.818.818,0,0,1,.4-.1.821.821,0,0,1,.716.42A.82.82,0,0,1,2.588-.871a3.346,3.346,0,0,1-1.361.15c-.2,0-.4,0-.571-.011A5.783,5.783,0,0,1,1.791-2.3" fill="#c03c45"/>
    </g>
  </g>
</svg>
