<svg xmlns="http://www.w3.org/2000/svg" width="28.938" height="28.418" viewBox="0 0 28.938 28.418">
  <g id="Group_414" data-name="Group 414" transform="translate(8.419 20.255)">
    <path id="Path_312" data-name="Path 312" d="M0,0S11.822,10.939,18.485,7.49c0,0,1.842-1.529,2.02-3.031s-1.351-2.51-1.943-2.852C17.147.783,15.691.016,14.247-.765a2.087,2.087,0,0,0-1.491-.39,5.1,5.1,0,0,0-.918.306C10.821-.365,9.987.092,8.886.546c0,0-1.125-.333-5.319-4.2C-.889-7.772-.286-9.3-.286-9.3A16.7,16.7,0,0,0,1.26-11.664a5.948,5.948,0,0,0,.558-1.088c.112-.39-.117-.669-.31-1.011-.427-.766-.884-1.517-1.357-2.26a27.282,27.282,0,0,0-2.692-3.768c-.11-.119-.367-.478-.576-.464-2.317.143-4.6,2.255-4.6,2.255C-11.3-12.023,0,0,0,0" fill="#c53a3c"/>
  </g>
</svg>
