<?xml version="1.0" encoding="UTF-8"?>
<svg width="31px" height="31px" viewBox="0 0 31 31" version="1.1" xmlns="http://www.w3.org/2000/svg" xmlns:xlink="http://www.w3.org/1999/xlink">
    <title>Product Details</title>
    <g id="Product-Details" stroke="none" stroke-width="1" fill="none" fill-rule="evenodd">
        <g id="Group-25" transform="translate(1.000000, 5.000000)" fill="#000000" fill-rule="nonzero">
            <path d="M28.965902,16.5765254 C28.965902,16.5733651 28.9673605,16.5706911 28.9671174,16.5677737 L28.2747891,3.81026299 C28.2672535,3.67680699 28.2098814,3.55112372 28.1121588,3.45972394 L24.6001717,0.143206771 C24.3906249,-0.0549142589 24.0629374,-0.0459217697 23.8648412,0.164842265 C23.6679337,0.373175526 23.6769324,0.702076599 23.8864767,0.900172737 L27.2474896,4.07449033 L27.7677098,13.6625375 C26.5177227,12.2795611 24.4127956,11.3679903 22.0297548,11.3679903 C19.2468128,11.3679903 16.8574866,12.6167328 15.7524373,14.4030333 C14.9439222,14.0439871 14.0194072,14.0444725 13.214066,14.402304 C12.1089544,12.6165636 9.72006386,11.3677589 6.93737073,11.3677589 C4.55432995,11.3677589 2.44990077,12.2788941 1.20034927,13.6620572 L1.71959862,4.07400997 L5.0806115,0.89969237 C5.29015828,0.70157134 5.29915077,0.372664044 5.10224699,0.164361898 C4.90412596,-0.0463984027 4.57521867,-0.055390892 4.36691652,0.142726404 L0.854929397,3.45924357 C0.757206865,3.55064958 0.699835406,3.67632662 0.692299139,3.80978263 L0.0012154485,16.5672934 C0.000972371245,16.5704535 0.00267403648,16.5731276 0.002430897,16.5760444 C0.002430897,16.582608 2.29935289e-14,16.5886849 2.29935289e-14,16.5952485 C2.29935289e-14,19.4773257 3.11183691,21.8232142 6.93759657,21.8232142 C10.7634185,21.8232142 13.8764378,19.477139 13.8764378,16.5952485 C13.8764378,16.1581699 13.7835755,15.7400596 13.6486571,15.3338107 C14.1795687,15.1014124 14.7853824,15.1014124 15.3179618,15.334783 C15.1832861,15.7407457 15.0906727,16.1586071 15.0906727,16.595474 C15.0906727,19.4775513 18.203941,21.8234397 22.0295139,21.8234397 C25.8545891,21.8236828 28.9677328,19.4776135 28.9677328,16.5957229 C28.9677328,16.5891594 28.9653019,16.5830824 28.9653019,16.5765188 L28.965902,16.5765254 Z M6.93710369,20.7822722 C3.6859921,20.7822722 1.04207579,18.9056112 1.04114232,16.5969374 L1.04138546,16.5928048 C1.04357328,14.2848778 3.6867331,12.4091503 6.9370979,12.4091503 C10.1887073,12.4091503 12.8345528,14.2865581 12.8345528,16.5956675 C12.8345528,18.9047769 10.1887073,20.7821847 6.9370979,20.7821847 L6.93710369,20.7822722 Z M22.02955,20.7822722 C18.7779406,20.7822722 16.1320951,18.9048644 16.1320951,16.595755 C16.1320951,14.2866455 18.7779406,12.4092378 22.02955,12.4092378 C25.2799148,12.4092378 27.924329,14.2852142 27.9265071,16.5928923 L27.9267502,16.5970249 C27.926021,18.9056987 25.2806558,20.7823597 22.0295442,20.7823597 L22.02955,20.7822722 Z" id="Shape"></path>
            <path d="M22.02955,13.483582 C19.4219148,13.483582 17.3794063,14.8502786 17.3794063,16.5954438 C17.3794063,16.8825376 17.6132608,17.1161494 17.9001118,17.1161494 C18.1872056,17.1161494 18.4208174,16.8822949 18.4208174,16.5954438 C18.4208174,15.4725962 20.0733818,14.5249932 22.0292638,14.5249932 C22.3163576,14.5249932 22.5499701,14.2911387 22.5499701,14.0042876 C22.5504556,13.7174365 22.3166003,13.483582 22.0295065,13.483582 L22.02955,13.483582 Z" id="Path"></path>
            <path d="M6.93710369,13.4836069 C6.65000991,13.4836069 6.41639811,13.7174614 6.41639811,14.0043125 C6.41639811,14.2914063 6.65025262,14.5250181 6.93710369,14.5250181 C8.89447923,14.5250181 10.5470436,15.4726211 10.5470436,16.5954687 C10.5470436,16.8825625 10.7808981,17.1161743 11.0677492,17.1161743 C11.354843,17.1161743 11.5884548,16.8823198 11.5884548,16.5954687 C11.5884548,14.8503035 9.54476378,13.4836069 6.93712858,13.4836069 L6.93710369,13.4836069 Z" id="Path"></path>
        </g>
    </g>
</svg>