<?xml version="1.0" encoding="UTF-8"?>
<svg width="31px" height="31px" viewBox="0 0 31 31" version="1.1" xmlns="http://www.w3.org/2000/svg" xmlns:xlink="http://www.w3.org/1999/xlink">
    <title>Size Details</title>
    <g id="Size-Details" stroke="none" stroke-width="1" fill="none" fill-rule="evenodd">
        <g id="Shape-6" transform="translate(5.000000, 2.000000)" fill="#000000" fill-rule="nonzero">
            <path d="M11.2667387,1.27761531 C11.1363026,1.28469359 11.0119195,1.335657 10.9141932,1.42241667 L8.59943606,3.45105431 C8.47182228,3.56127191 8.39832857,3.72164632 8.39832857,3.89030944 C8.39832857,4.05917447 8.47182745,4.21954888 8.59943606,4.32956457 L10.9141932,6.35820221 C11.1562914,6.56832442 11.5227468,6.54203455 11.7323522,6.29935287 C11.9421437,6.05687311 11.9158952,5.68984004 11.6735955,5.47969712 L10.5252886,4.47438665 L19.0066838,4.47438665 L17.8583769,5.47969712 C17.6162787,5.68981933 17.5900302,6.0568524 17.7996202,6.29935287 C18.0094117,6.54203455 18.3758671,6.56832442 18.6179859,6.35820221 L20.9327431,4.32956457 C21.0603568,4.21954888 21.1338505,4.05917447 21.1338505,3.89030944 C21.1338505,3.72164632 21.0603517,3.56127191 20.9327431,3.45105431 L18.6179859,1.42241667 C18.5014804,1.31887249 18.3484297,1.26669657 18.1929495,1.27761531 C17.9567079,1.29258055 17.7531761,1.45032183 17.6794757,1.67581517 C17.6057752,1.90110661 17.6766489,2.14884124 17.8583717,2.30091141 L19.0157761,3.31512668 L10.5162893,3.31512668 L11.6736937,2.30091141 C11.865714,2.14033509 11.9329531,1.87439738 11.840277,1.64164559 C11.7477973,1.409075 11.5166059,1.26205262 11.2668214,1.27762566 L11.2667387,1.27761531 Z M9.55774377,7.66214964 C9.10767363,7.66214964 8.73270995,7.91231239 8.4907979,8.23267809 C8.24890136,8.55321982 8.11099081,8.96069724 8.11099081,9.40096711 L8.11099081,11.1397846 L8.11119272,11.1397846 C8.10897162,11.2948989 8.16894146,11.4443494 8.27777604,11.554769 C8.38640903,11.6653904 8.53501953,11.7274755 8.68988976,11.7274755 C8.84476,11.7274755 8.99316891,11.6653904 9.10200348,11.554769 C9.21063647,11.4443494 9.27080434,11.2948989 9.26858681,11.1397846 L9.26858681,9.40096711 C9.26858681,9.2074275 9.33723711,9.03067758 9.41316027,8.92996015 C9.48928504,8.8292479 9.54399955,8.82135783 9.55773374,8.82135783 L20.5528432,8.82135783 C20.5667754,8.82135783 20.6214935,8.82924479 20.6974167,8.92996015 C20.7735415,9.0306724 20.8419902,9.2074275 20.8419902,9.40096711 L20.8419902,24.4707875 C20.8419902,24.6643271 20.7733399,24.8319807 20.6974167,24.9326929 C20.6212919,25.0334052 20.5665774,25.0503916 20.5528432,25.0503916 L12.1619066,25.0503916 L12.1623104,25.0501894 C12.0072386,25.0479649 11.8580233,25.1080292 11.747576,25.2170353 C11.6373303,25.3260415 11.5751413,25.4746843 11.5751413,25.6297987 C11.5751413,25.7851149 11.6373303,25.9337578 11.747576,26.042562 C11.8580233,26.1515682 12.0072386,26.211629 12.1623104,26.2094674 L20.553247,26.2094674 C21.0033172,26.2094674 21.3782809,25.9503456 21.6201929,25.6298194 C21.8620895,25.3094796 22,24.9108603 22,24.4705905 L22,9.40077006 C22,8.96050537 21.862291,8.55300206 21.6201929,8.23248104 C21.3782964,7.91193932 21.0033172,7.6619526 20.553247,7.6619526 L9.55813755,7.6619526 L9.55774377,7.66214964 Z M2.53195616,7.95195428 L2.53215806,7.95195428 C2.39566384,7.97116638 2.27067594,8.03871395 2.1796126,8.14205622 L0.154167764,10.4604623 C0.0521976988,10.575738 0.000103902797,10.7268038 0.00939270528,10.8805048 C0.0188825842,11.0342057 0.0887481286,11.1779924 0.20383727,11.2801232 C0.443511118,11.4926735 0.810013045,11.4702251 1.022203,11.2301714 L2.03482203,10.0709425 L2.03482203,23.2117348 L1.022203,22.0525059 L1.022203,22.0527081 C0.895199169,21.9030557 0.701157791,21.8280276 0.506708057,21.8535047 C0.291463191,21.8804018 0.109336498,22.0258074 0.0350312475,22.2300638 C-0.0392740033,22.4343202 0.00656109371,22.6630493 0.154162595,22.8223883 L2.17960743,25.1407943 C2.28944997,25.2655754 2.44755087,25.336964 2.61352425,25.336964 C2.77969922,25.336964 2.93759852,25.2655754 3.04764266,25.1407943 L5.07308749,22.8223883 L5.07288559,22.8223883 C5.17586362,22.7073145 5.2285622,22.5558449 5.21967658,22.4015381 C5.21059041,22.2472314 5.14072952,22.103041 5.02523202,22.0007083 C4.90973452,21.8981736 4.75829654,21.8461996 4.60423785,21.8559069 C4.45037558,21.8656142 4.30661366,21.936397 4.20484519,22.0526823 L3.19222615,23.2119112 L3.19222615,10.0711189 L4.20484519,11.2303478 L4.20484519,11.2301456 C4.41726258,11.4701972 4.78352156,11.4926456 5.02321092,11.2800973 C5.26288476,11.067547 5.28529781,10.7005088 5.07288249,10.4604416 L3.04743766,8.14203556 L3.04763956,8.14203556 C2.91861463,7.99582082 2.72497644,7.92443228 2.53214462,7.95193362 L2.53195616,7.95195428 Z M8.62627899,12.8694746 L8.62648089,12.8694746 C8.32845352,12.9022365 8.10471588,13.1576588 8.11118755,13.4581751 L8.11118755,13.7479797 C8.10896645,13.9030941 8.1689363,14.0525446 8.27777087,14.1629641 C8.38640386,14.2735855 8.53501436,14.3356706 8.68988459,14.3356706 C8.84475483,14.3356706 8.99316374,14.2735855 9.10199831,14.1629641 C9.2106313,14.0525446 9.27079917,13.9030941 9.26858164,13.7479797 L9.26858164,13.4581751 C9.27201421,13.2911272 9.20376679,13.130758 9.0808,13.0181123 C8.9578332,12.9052647 8.79226301,12.8510645 8.62648606,12.8694694 L8.62627899,12.8694746 Z M8.62627899,15.4777008 L8.62648089,15.4777008 C8.32845352,15.5104627 8.10471588,15.765885 8.11118755,16.0661942 L8.11118755,24.4703578 C8.11118755,24.9106225 8.2488965,25.3090139 8.49099464,25.6295867 C8.73289118,25.9501284 9.10787037,26.2092349 9.5579405,26.2092349 L9.84728903,26.2092349 C10.0021593,26.2113999 10.1513745,26.1513355 10.2618219,26.0423294 C10.3720676,25.9335251 10.4342566,25.7848823 10.4342566,25.629566 C10.4342566,25.4744516 10.3720676,25.3258088 10.2618219,25.2168027 C10.1513745,25.1077965 10.0021593,25.0477357 9.84728903,25.0499567 L9.5579405,25.0499567 C9.54400833,25.0499567 9.4892902,25.0327668 9.41336704,24.9322581 C9.33724228,24.8315458 9.26879357,24.6638922 9.26879357,24.4703526 L9.26879357,16.066189 L9.26859167,16.066189 C9.27202424,15.8993431 9.20357522,15.7389739 9.08081002,15.6263281 C8.95784323,15.5134805 8.79227304,15.4592803 8.62649609,15.4776853 L8.62627899,15.4777008 Z" id="Shape"></path>
        </g>
    </g>
</svg>