<svg xmlns="http://www.w3.org/2000/svg" viewBox="0 0 42 42"><defs><style>.cls-1{fill:#a7a9ad;}.cls-2{fill:#fff;}</style></defs><g id="Layer_2" data-name="Layer 2"><g id="Layer_1-2" data-name="Layer 1"><g id="icVHM5"><path class="cls-1" d="M20.67,42A21,21,0,1,1,42,21.51,21,21,0,0,1,20.67,42ZM21,39.75a17.85,17.85,0,0,0,3.79-.38A18.76,18.76,0,0,0,34,34.52a.33.33,0,0,0,.09-.43,14.2,14.2,0,0,0-15.71-8.33A14,14,0,0,0,7.91,34.09a.32.32,0,0,0,.09.43A18.67,18.67,0,0,0,21,39.75Zm7.51-24A7.51,7.51,0,1,0,21,23.24,7.53,7.53,0,0,0,28.51,15.76Z"/><path class="cls-2" d="M21,39.75A18.67,18.67,0,0,1,8,34.52a.32.32,0,0,1-.09-.43,14,14,0,0,1,10.47-8.33,14.2,14.2,0,0,1,15.71,8.33.33.33,0,0,1-.09.43,18.76,18.76,0,0,1-9.21,4.85A17.85,17.85,0,0,1,21,39.75Z"/><path class="cls-2" d="M28.51,15.76A7.51,7.51,0,1,1,21,8.25,7.5,7.5,0,0,1,28.51,15.76Z"/></g></g></g></svg>